# xmcd
#
# Track frame offsets:
#	150
#	9698
#	22322
#	36420
#	50962
#	76893
#	93227
#	105305
#	125124
#	148614
#	161433
#	172354
#	186169
#
# Disc length: 2676 seconds
#
# Revision: 0
# Processed by: cddbd v1.5.2PL0 Copyright (c) Steve Scherf et al.
# Submitted via: EasyCDDAExtractor 12.0.1.1
#
DISCID=b90a720d
DTITLE=Bert Smith's Blues Deluxe - Hope That It's Rainin'
DYEAR=1900
DGENRE=Blues
TTITLE0=Memphis Girl
TTITLE1=Goin' To Oklahoma
TTITLE2=Hypnotized
TTITLE3=American Man
TTITLE4=Ol' Missouri
TTITLE5=Four Leaf Clover
TTITLE6=Groceries
TTITLE7=Mr. Black Cat
TTITLE8=Hope That It's Rainin'
TTITLE9=Hogwild
TTITLE10=Doc's Blues
TTITLE11=Ol' Man Winter
TTITLE12=Ate Up With Elvis
EXTD=
EXTT0=
EXTT1=
EXTT2=
EXTT3=
EXTT4=
EXTT5=
EXTT6=
EXTT7=
EXTT8=
EXTT9=
EXTT10=
EXTT11=
EXTT12=
PLAYORDER=
